<svg xmlns="http://www.w3.org/2000/svg" 
     width="153" 
     height="116" 
     viewBox="0 0 153 116"
     > 
  <!-- Static grey path as background -->
<path d="M41.6193 52.7867C41.75 52.5253 42.2095 48.73 43.6862 39.8827C44.5586 34.6561 46.5356 28.094 48.2619 22.6339C49.9882 17.1738 51.6224 13.0557 53.3793 9.92102C55.1363 6.78639 56.9666 4.76003 58.3016 3.78151C59.6367 2.80299 60.4211 2.93372 61.0213 3.16449C63.1995 4.00199 64.8502 7.5391 67.9056 16.0328C70.2403 22.523 72.8566 33.874 74.4373 39.8293C76.4795 46.775 77.0084 47.8307 77.2719 48.5884C77.4046 48.9539 77.5353 49.2807 77.8681 50.0136" 
  stroke="grey" stroke-width="4" stroke-linecap="round" fill="none" />

<!-- Animated white path on top -->
<path d="M41.6193 52.7867C41.75 52.5253 42.2095 48.73 43.6862 39.8827C44.5586 34.6561 46.5356 28.094 48.2619 22.6339C49.9882 17.1738 51.6224 13.0557 53.3793 9.92102C55.1363 6.78639 56.9666 4.76003 58.3016 3.78151C59.6367 2.80299 60.4211 2.93372 61.0213 3.16449C63.1995 4.00199 64.8502 7.5391 67.9056 16.0328C70.2403 22.523 72.8566 33.874 74.4373 39.8293C76.4795 46.775 77.0084 47.8307 77.2719 48.5884C77.4046 48.9539 77.5353 49.2807 77.8681 50.0136" 
  stroke="white" stroke-width="4" stroke-linecap="round" fill="none" 
  stroke-dasharray="1000" stroke-dashoffset="1000">
  <animate 
  attributeName="stroke-dashoffset" 
  values="1000;0;1000" 
  keyTimes="0;0.6;1" 
  dur="6s" 
  repeatCount="indefinite" 
  calcMode="spline" 
  keySplines="0.42 0 0.88 1; 0.42 0 0.38 1" />

</path>

</svg>
