<?xml version='1.0' encoding='utf-8'?>
<svg xmlns="http://www.w3.org/2000/svg" width="153" height="116" viewBox="0 0 153 116" fill="none">
<!-- <path d="M41.6193 52.7867C41.75 52.5253 42.2095 48.73 43.6862 39.8827C44.5586 34.6561 46.5356 28.094 48.2619 22.6339C49.9882 17.1738 51.6224 13.0557 53.3793 9.92102C55.1363 6.78639 56.9666 4.76003 58.3016 3.78151C59.6367 2.80299 60.4211 2.93372 61.0213 3.16449C63.1995 4.00199 64.8502 7.5391 67.9056 16.0328C70.2403 22.523 72.8566 33.874 74.4373 39.8293C76.4795 46.775 77.0084 47.8307 77.2719 48.5884C77.4046 48.9539 77.5353 49.2807 77.8681 50.0136" stroke="grey" stroke-width="4" stroke-linecap="round" fill="none" stroke-dasharray="1000" stroke-dashoffset="1000"><animate attributeName="stroke-dashoffset" from="1000" to="0" dur="2s" fill="freeze" repeatCount="indefinite" /></path> -->

  <!-- Static grey path as background -->
<path d="M41.6193 52.7867C41.75 52.5253 42.2095 48.73 43.6862 39.8827C44.5586 34.6561 46.5356 28.094 48.2619 22.6339C49.9882 17.1738 51.6224 13.0557 53.3793 9.92102C55.1363 6.78639 56.9666 4.76003 58.3016 3.78151C59.6367 2.80299 60.4211 2.93372 61.0213 3.16449C63.1995 4.00199 64.8502 7.5391 67.9056 16.0328C70.2403 22.523 72.8566 33.874 74.4373 39.8293C76.4795 46.775 77.0084 47.8307 77.2719 48.5884C77.4046 48.9539 77.5353 49.2807 77.8681 50.0136" 
  stroke="grey" stroke-width="6" stroke-linecap="round" fill="none" />

<!-- Animated white path on top -->
<path d="M41.6193 52.7867C41.75 52.5253 42.2095 48.73 43.6862 39.8827C44.5586 34.6561 46.5356 28.094 48.2619 22.6339C49.9882 17.1738 51.6224 13.0557 53.3793 9.92102C55.1363 6.78639 56.9666 4.76003 58.3016 3.78151C59.6367 2.80299 60.4211 2.93372 61.0213 3.16449C63.1995 4.00199 64.8502 7.5391 67.9056 16.0328C70.2403 22.523 72.8566 33.874 74.4373 39.8293C76.4795 46.775 77.0084 47.8307 77.2719 48.5884C77.4046 48.9539 77.5353 49.2807 77.8681 50.0136" 
  stroke="white" stroke-width="6" stroke-linecap="round" fill="none" 
  stroke-dasharray="1000" stroke-dashoffset="1000">
  <animate 
  attributeName="stroke-dashoffset" 
  values="1000;0;1000" 
  keyTimes="0;0.6;1" 
  dur="6s" 
  repeatCount="indefinite" 
  calcMode="spline" 
  keySplines="0.42 0 0.88 1; 0.42 0 0.38 1" />

</path>



<!-- <path d="M69.8918 21.5713C68.7378 21.379 64.1044 21.3761 56.6865 21.7622C50.6697 22.0754 45.0548 24.0862 36.9317 27.42C31.7296 29.5549 24.5773 33.1579 19.9001 35.7106C13.0836 39.431 10.4525 42.2528 8.70842 44.1412C4.90778 48.2562 3.26339 54.4659 3.01132 58.9551C2.71297 64.2686 8.38641 69.6368 11.0164 71.7845C12.6588 73.1258 16.7295 74.3081 27.7828 75.4272C36.0091 76.26 49.7028 75.296 61.8343 74.4728C73.9657 73.6496 84.1593 72.3994 90.0837 71.7554C96.0081 71.1113 97.3545 71.1113 98.7416 71.1113" stroke="white" stroke-width="4" stroke-linecap="round" fill="none" stroke-dasharray="1000" stroke-dashoffset="1000"><animate attributeName="stroke-dashoffset" from="1000" to="0" dur="2s" fill="freeze" repeatCount="indefinite" /></path> -->

<path d="M69.8918 21.5713C68.7378 21.379 64.1044 21.3761 56.6865 21.7622C50.6697 22.0754 45.0548 24.0862 36.9317 27.42C31.7296 29.5549 24.5773 33.1579 19.9001 35.7106C13.0836 39.431 10.4525 42.2528 8.70842 44.1412C4.90778 48.2562 3.26339 54.4659 3.01132 58.9551C2.71297 64.2686 8.38641 69.6368 11.0164 71.7845C12.6588 73.1258 16.7295 74.3081 27.7828 75.4272C36.0091 76.26 49.7028 75.296 61.8343 74.4728C73.9657 73.6496 84.1593 72.3994 90.0837 71.7554C96.0081 71.1113 97.3545 71.1113 98.7416 71.1113" stroke="grey" stroke-width="6" stroke-linecap="round" fill="none" />

<path d="M69.8918 21.5713C68.7378 21.379 64.1044 21.3761 56.6865 21.7622C50.6697 22.0754 45.0548 24.0862 36.9317 27.42C31.7296 29.5549 24.5773 33.1579 19.9001 35.7106C13.0836 39.431 10.4525 42.2528 8.70842 44.1412C4.90778 48.2562 3.26339 54.4659 3.01132 58.9551C2.71297 64.2686 8.38641 69.6368 11.0164 71.7845C12.6588 73.1258 16.7295 74.3081 27.7828 75.4272C36.0091 76.26 49.7028 75.296 61.8343 74.4728C73.9657 73.6496 84.1593 72.3994 90.0837 71.7554C96.0081 71.1113 97.3545 71.1113 98.7416 71.1113" stroke="white" stroke-width="6" stroke-linecap="round" fill="none" stroke-dasharray="1000" stroke-dashoffset="1000">
<animate 
  attributeName="stroke-dashoffset" 
  values="1000;0;1000" 
  keyTimes="0;0.6;1" 
  dur="6s" 
  repeatCount="indefinite" 
  calcMode="spline" 
  keySplines="0.42 0 0.88 1; 0.42 0 0.38 1" 
  begin="0s" />


</path>




<!-- <path d="M102.821 28.5652C100.691 28.5652 97.5934 28.7575 95.0101 29.4846C92.8894 30.0815 90.5996 32.9189 88.4504 36.0822C87.6301 37.2895 88.2479 38.855 89.0216 40.2115C89.9053 41.761 92.0275 43.0309 99.1612 45.8314C105.04 48.1391 115.912 51.1321 123.624 53.7301C131.336 56.328 135.663 58.1552 138.854 59.6734C144.065 62.1526 146.623 64.1116 147.884 65.2744C149.044 66.3449 149.736 68.0894 150.125 70.0768C150.451 71.7441 149.742 73.6262 149.112 75.5175C148.611 77.0225 146.067 79.5419 140.124 83.9961C136.363 86.8147 130.045 89.2197 125.53 90.9929C121.014 92.7662 118.225 93.4393 112.606 94.1708C106.986 94.9022 98.6192 95.6715 92.9148 95.9717C79.243 96.6911 74.0736 93.8444 73.2008 93.2149C72.7795 92.9111 72.5204 92.4893 72.516 91.9065C72.5056 90.5249 74.2513 88.9924 76.4806 87.6344C78.4087 86.46 80.7586 86.1686 82.8932 86.071C85.4895 85.9522 88.717 88.9691 90.9157 91.4038C93.3199 94.0661 93.1057 97.9038 93.9304 104.644C94.079 107.992 94.1752 110.059 94.3209 111.124C94.3704 111.708 94.3704 112.381 94.6618 113.075" stroke="white" stroke-width="4" stroke-linecap="round" fill="none" stroke-dasharray="1000" stroke-dashoffset="1000"><animate attributeName="stroke-dashoffset" from="1000" to="0" dur="2s" fill="freeze" repeatCount="indefinite" /></path> -->

<path d="M102.821 28.5652C100.691 28.5652 97.5934 28.7575 95.0101 29.4846C92.8894 30.0815 90.5996 32.9189 88.4504 36.0822C87.6301 37.2895 88.2479 38.855 89.0216 40.2115C89.9053 41.761 92.0275 43.0309 99.1612 45.8314C105.04 48.1391 115.912 51.1321 123.624 53.7301C131.336 56.328 135.663 58.1552 138.854 59.6734C144.065 62.1526 146.623 64.1116 147.884 65.2744C149.044 66.3449 149.736 68.0894 150.125 70.0768C150.451 71.7441 149.742 73.6262 149.112 75.5175C148.611 77.0225 146.067 79.5419 140.124 83.9961C136.363 86.8147 130.045 89.2197 125.53 90.9929C121.014 92.7662 118.225 93.4393 112.606 94.1708C106.986 94.9022 98.6192 95.6715 92.9148 95.9717C79.243 96.6911 74.0736 93.8444 73.2008 93.2149C72.7795 92.9111 72.5204 92.4893 72.516 91.9065C72.5056 90.5249 74.2513 88.9924 76.4806 87.6344C78.4087 86.46 80.7586 86.1686 82.8932 86.071C85.4895 85.9522 88.717 88.9691 90.9157 91.4038C93.3199 94.0661 93.1057 97.9038 93.9304 104.644C94.079 107.992 94.1752 110.059 94.3209 111.124C94.3704 111.708 94.3704 112.381 94.6618 113.075" stroke="grey" stroke-width="6" stroke-linecap="round" fill="none" />

<path d="M102.821 28.5652C100.691 28.5652 97.5934 28.7575 95.0101 29.4846C92.8894 30.0815 90.5996 32.9189 88.4504 36.0822C87.6301 37.2895 88.2479 38.855 89.0216 40.2115C89.9053 41.761 92.0275 43.0309 99.1612 45.8314C105.04 48.1391 115.912 51.1321 123.624 53.7301C131.336 56.328 135.663 58.1552 138.854 59.6734C144.065 62.1526 146.623 64.1116 147.884 65.2744C149.044 66.3449 149.736 68.0894 150.125 70.0768C150.451 71.7441 149.742 73.6262 149.112 75.5175C148.611 77.0225 146.067 79.5419 140.124 83.9961C136.363 86.8147 130.045 89.2197 125.53 90.9929C121.014 92.7662 118.225 93.4393 112.606 94.1708C106.986 94.9022 98.6192 95.6715 92.9148 95.9717C79.243 96.6911 74.0736 93.8444 73.2008 93.2149C72.7795 92.9111 72.5204 92.4893 72.516 91.9065C72.5056 90.5249 74.2513 88.9924 76.4806 87.6344C78.4087 86.46 80.7586 86.1686 82.8932 86.071C85.4895 85.9522 88.717 88.9691 90.9157 91.4038C93.3199 94.0661 93.1057 97.9038 93.9304 104.644C94.079 107.992 94.1752 110.059 94.3209 111.124C94.3704 111.708 94.3704 112.381 94.6618 113.075" stroke="white" stroke-width="6" stroke-linecap="round" fill="none" stroke-dasharray="1000" stroke-dashoffset="1000">

<animate 
  attributeName="stroke-dashoffset" 
  values="1000;0;1000" 
  keyTimes="0;0.6;1" 
  dur="6s" 
  repeatCount="indefinite" 
  calcMode="spline" 
  keySplines="0.32 0 0.88 1; 0.42 0 0.38 1" 
  begin="0s" />
  
</path>



</svg>


  