<svg viewBox="0 0 800 600" xmlns="http://www.w3.org/2000/svg">
  <defs>
    <style>
      .drawing-path {
        fill: none;
        stroke: white;
        stroke-width: 3;
        stroke-linecap: round;
        stroke-linejoin: round;
      }
    </style>
  </defs>
  <rect width="100%" height="100%" fill="black"/>

  <path class="drawing-path" d="M 309.874516964692 265.35426346362715 L 310.03499864885765 263.0234623110201 L 310.4368006420493 256.5945381249014 L 310.9594773784435 250.96921796622433 L 311.64223727715154 245.10297600806362 L 311.88355758617763 238.43309936693265 L 312.0040031520013 232.6869351144059 L 312.48627590372877 227.1420550628474 L 313.2494759054455 220.8336071042348 L 313.8121581046546 214.8064849318369 L 314.4148764222057 208.41796473244926 L 315.6202824017808 201.66767863972834 L 316.7452789338743 195.64055646733044 L 317.9106794506345 189.57299965267285 L 319.51791807892846 182.66183334571474 L 320.924240382863 176.15283691882098 L 322.45103890814823 170.3266310810478 L 324.0582468809151 163.41546477408968 L 325.38415973736795 156.86606436046486 L 327.0318023503286 151.2003248872924 L 328.7190825597794 144.32956256706535 L 330.40676129108203 138.50334140152785 L 332.49624201557634 132.59668012887175 L 334.3848064157113 126.60959407686137 L 336.2329668311795 120.54243578407593 L 338.04109112830577 114.83669084604456 L 340.1706079711421 109.17134989474424 L 342.3805649169871 103.90742776305687 L 344.18868921411337 99.12614627408107 L 345.836331827074 94.58578658458887 L 347.4836065737099 90.487265029205 L 349.01037444346804 86.79056081530626 L 350.97940960213873 83.25472148788039 L 352.5866482304327 80.48209752892936 L 354.1538507403846 78.11165877780698 L 355.51976905965245 76.30351906053475 L 356.68516957641265 75.09809769160803 L 358.1719319833559 74.29447833640212 L 359.61829040563237 73.89267632268131 L 360.9441726065582 73.69177531582092 L 362.39089889515947 73.93269711530453 L 364.2790954289697 74.73631647051045 L 366.5294563594814 76.18265963892078 L 368.33758065660766 78.2321196775488 L 370.14573560926095 80.68299853578976 L 372.0343000093959 83.49565861512832 L 374.12338221203845 86.83058160792947 L 376.09241737070914 90.32638481496782 L 378.3023436610271 93.94266424951229 L 380.1104986136804 97.75984469091716 L 381.87861744799176 102.05926725316142 L 383.44542143609186 106.6800670497722 L 385.0526600643858 112.22493177356641 L 386.7803442585033 117.28795289839337 L 388.54846309281464 123.8373533120182 L 389.55298340355745 130.1458165983951 L 390.39662350828286 135.85117834231863 L 391.4815839220344 142.92324019127824 L 392.8074661229602 149.63350549137593 L 393.85242107389683 155.45974198467775 L 395.17830327482267 162.61183009111946 L 396.62466169709916 169.36214683936902 L 397.9909478826917 176.0723968117024 L 399.55815039264365 182.7826774395644 L 400.9645033521052 189.61343429493255 L 402.12950534701366 196.08236394591015 L 404.0581058654906 203.07400101551548 L 406.0271103686342 209.26160488027838 L 407.9961455273049 215.12824536031127 L 409.8843114055881 222.0794477876569 L 411.9737921300824 228.54840809416314 L 413.7819470827357 233.932775797828 L 415.59007137986197 239.59813207689263 L 417.3177555739795 244.5806977668367 L 418.5231922090817 248.92014112170418 L 419.6485566074999 252.57645667663616 L 420.77355313959345 255.9517836561684 L 421.81810956867827 259.16626107699204 L 422.9430754452447 261.97890582856627 L 424.06847049918997 264.22886835218253 L 424.751230397898 265.43430504887357 L 425.19343637575645 266.1174635043377 L 425.55483438428143 266.68014573229567 L 425.7557507086408 266.8810620669204 L 425.8765947963162 266.8810620669204 L 425.9166309146582 266.5997056251771 L 425.7557507086408 265.39426892848604 L 425.032556169739 262.742504391149 L 423.8271501901639 259.5680630907129 L 422.86303386408775 256.4740618973953 L 421.17535513278517 252.93822256996944 L 419.32679619546514 249.56289559043722 L 416.9963936837965 245.34389780754722 L 414.26418917893614 241.24577477403554 L 410.7283500321653 236.74545120493087 L 406.87075047335964 232.60689352915946 L 402.73222366456474 228.7897284155189 L 398.71414242159346 224.81165243211254 L 394.05330674272915 220.47220907724508 L 388.62890319582334 216.49416374936735 L 383.3249452147412 213.11920463617864 L 377.3378594686263 209.8643232286239 L 371.23069602301246 207.25256415614575 L 363.91769742044465 204.3194431770654 L 356.72517503922757 201.42635831837256 L 349.1312491866705 199.21640125961522 L 341.1751282818849 197.68960265632197 L 333.0184895745917 196.4841966151596 L 324.74140530147486 195.88147826681407 L 316.4239170436913 195.64055646733044 L 307.3027941439973 195.76100203930793 L 298.78435890632727 196.32331640092238 L 289.703670646827 197.24776452221366 L 280.7434279531504 198.895039353013 L 270.4973085213628 201.06496029138282 L 262.3002658294029 203.79716493583848 L 254.94726176402017 206.00712199459582 L 246.91109927807764 208.69932117419256 L 238.51314026175834 212.15468973897123 L 231.16013619637562 215.77096917351568 L 223.8875722340016 220.5926853047512 L 216.97639095238904 224.93212865961868 L 210.02518888019804 229.03065021500254 L 204.2794081153457 233.1291717703864 L 198.7745644654312 237.9908933664808 L 193.7919837022956 243.25481549816817 L 189.0907440387645 248.43789900086477 L 184.67086080260154 253.42046469080884 L 180.69319887206052 258.80446452813015 L 176.7955785226764 264.22886835218253 L 173.70157748743927 269.2514701625141 L 171.25069875441994 274.4749883074704 L 169.0003378239082 280.0202668809011 L 167.3130576144574 285.4446707049535 L 166.26813331904785 289.9850303944457 L 165.5449541079096 294.88715597727116 L 165.705834313927 299.90975778760276 L 166.30853730371456 304.4100813567074 L 167.39311452337782 308.146837018758 L 168.9202962427513 312.04444223951714 L 171.08981854840255 316.303445487266 L 173.70157748743927 320.08060513604767 L 180.09048055450944 326.5495654425539 L 184.26905880940984 329.4022463145157 L 189.0107024576076 332.6166930798107 L 193.71154359928687 335.30889225940746 L 199.13594714619268 337.6392948901423 L 204.8821264328968 340.21104849776157 L 211.35107108112388 342.5818551152275 L 218.38271325632357 344.7113720668662 L 225.69569653112785 346.43905634925557 L 233.93277534142976 347.7249331530652 L 241.9689378273723 349.1312555288523 L 250.3664983218398 350.37669769040224 L 260.93434751013507 350.8189343463827 L 270.89911051455454 351.0598561458663 L 279.7389076424076 351.1402962529849 L 291.06995683241956 351.0198200254788 L 302.4810782591155 351.0198200254788 L 314.294400200855 350.8589398112416 L 325.9064072963833 350.45713779752083 L 337.6797237753078 350.13577589091864 L 349.4122070921868 349.7739793420567 L 361.46645082110064 349.17129164923983 L 373.6815747560318 348.3276515014107 L 385.6553783819369 347.8053732601838 L 397.06686767495756 347.6444930459466 L 409.2015515068801 347.04177469760106 L 420.89402936094416 346.3990508843967 L 431.662396351747 345.7963325360511 L 442.350721761393 345.63545232181394 L 452.99864318637225 345.55501221469535 L 461.5970893496721 345.23365030809316 L 470.71821224936616 345.27365577295205 L 478.55348906647635 345.23365030809316 L 485.22333471129923 345.19361418770563 L 490.7282090167408 345.39453052233034 L 495.4294180247448 345.35409588007064 L 498.884847724034 345.63545232181394 L 502.05928886227986 345.87637412129754 L 504.2292096897829 345.83633800091 L 505.11282460179615 345.87637412129754 L 505.59509735352367 345.7963325360511 L 505.7155735748743 345.5954162014264 L 504.9523735731576 344.5104557322415 L 503.7869730563974 342.5014150081089" 
        stroke-dasharray="1116.094976209697" 
        stroke-dashoffset="1116.094976209697">
    <animate attributeName="stroke-dashoffset" 
             values="1116.094976209697;0" 
             dur="1.5s" 
             begin="0s" 
             fill="freeze" />
  </path>
  <path class="drawing-path" d="M 518.2520287444614 265.916547169713 L 518.2520287444614 265.916547169713 L 516.9662133174047 264.5506287806569 L 514.8366964745684 262.3807078422871 L 512.425823204364 260.21078690391727 L 509.6936186995036 258.6035788490341 L 506.64002164893316 257.5189862461927 L 503.5056166290293 256.7554183391386 L 500.53245968146757 256.2731455627706 L 497.39842252788844 256.2331400979117 L 494.0631011836252 256.6349421116325 L 491.0900055471176 257.47858225946163 L 488.27729962819444 258.44306650114044 L 486.1478440964122 260.0903413319398 L 484.50017082792453 261.73798402908267 L 483.8974831659005 263.38522820435344 L 483.9779232689092 265.19338324938997 L 484.86196735830134 267.5237858801248 L 486.9110440981289 269.97506326023796 L 489.4423322786299 272.02410944922946 L 492.57673729853377 274.4749883074704 L 496.31346211413694 277.32806770130435 L 500.5724957998096 280.18074857326616 L 511.86353952700665 287.2527950944614 L 517.9707336281475 290.4268378730254 L 525.324136215382 294.16399205694813 L 533.3198334056037 297.9407531838576 L 541.2755557885375 302.20015495347866 L 548.668994494114 306.53959830834617 L 555.6606005509717 310.51724511435174 L 563.3750026248795 315.74076325930804 L 570.9693576548153 321.0046853909954 L 578.1618800360325 326.187768893692 L 585.1935222112322 331.1303291187772 L 591.1402039726804 335.911610607753 L 597.247765940146 341.416454538924 L 602.0694511695007 346.2381706701595 L 606.0070923094632 351.54209826670575 L 609.0206532416917 357.12701443865177 L 610.9492537601686 362.31049646322055 L 612.0742502922621 367.25265816643355 L 612.9182582633123 373.0788640042067 L 612.7573780572949 378.42282772114055 L 611.792893864894 383.7671899599465 L 609.7438171250664 388.9102679977842 L 606.5294011795327 394.1337554872119 L 602.5917600395701 399.6786355387704 L 598.1314421632134 404.701237349102 L 593.0287683728153 409.04068070396943 L 587.2425989510598 413.46056416595553 L 580.8136444378841 417.639525828458 L 574.1437987930613 421.0549195839063 L 566.9512764118441 424.10851679049284 L 559.1964703532697 426.88112542167954 L 550.1958236749263 429.69377017325377 L 540.3514755808034 432.3455960216481 L 530.3062724733753 434.3146006253932 L 519.7388218069318 436.48409238636225 L 508.8900147131202 438.13176573903377 L 498.08118242659646 439.2567623286062 L 487.43329165714425 439.9799262489292 L 477.2276068655505 440.0603663560478 L 467.624211214129 439.5780935796798 L 458.46308285162 439.2567623286062 L 449.3823639365927 438.2522419665399 L 440.18080093388994 436.3236413495258 L 431.98375824193005 434.15372041115603 L 424.389832389373 432.14467968702337 L 416.9963936837965 429.41247504256773 L 410.3665535017885 426.43888876569906 L 403.7771479599743 423.54580390700625 L 397.5891458895 420.53224282080726 L 392.847900763154 417.23775447026577 L 388.2271012026316 413.4205893566252 L 384.9722199613771 410.0852678419519 L 382.44090112534906 407.07167610022435 L 380.2713788196978 403.85719867940065 L 379.0255381999289 400.40183011462204 L 378.3023436610271 396.98643635917364 L 378.1414634550097 393.53106779439497 L 378.94509809692016 390.35662649395886 L 380.5523367252141 387.34306540775987 L 382.68222143437515 384.530390000657 L 385.5749382789282 382.11954726280356 L 388.9903012043483 380.27138675290814 L 392.6065804541279 378.78462427000244 L 396.26326368857417 377.5791875733114 L 400.32135039436037 376.97646922496585 L 404.21898607150797 377.29786178709674 L 408.43795298331156 377.9409841221733 L 412.6969866689842 379.588228297444 L 416.31323526323666 381.59726902157666 L 419.84947293185934 383.80722608033403 L 423.1439917696041 386.86079263139186 L 425.9166309146582 390.9593141867757 L 428.5283591981679 396.0623561042259 L 430.6578760410042 401.0849579145575 L 432.1846745662894 406.3084760595138 L 433.63140085489067 411.73287988356617 L 434.7563973869842 417.4786456142208 L 436.2027558092607 422.8226399866832 L 437.72992220087065 428.4079546805014 L 438.9353588359728 435.0377645457162 L 440.18080093388994 441.7480145180496 L 441.10488114162405 448.0965292525783 L 441.66756334083317 455.40952822878586 L 442.2702816583843 463.32484703146673 L 442.5916435485673 471.120057472985 L 442.55163808575236 478.95530403489084 L 442.75252375458473 486.83058671718425 L 442.91303609427735 494.42494213513504 L 442.8729999759354 501.4966207899868 L 443.1543564033035 509.0104747897618 L 443.7166400806608 515.6807499527649 L 444.39979850122063 520.4219953213532 L 445.52476437778705 524.3996727828874 L 447.13200300608094 527.7750304179483 L 448.6187654130242 529.3822384728314 L 449.42240005493466 529.0204419239695" 
        stroke-dasharray="701.0654745421817" 
        stroke-dashoffset="701.0654745421817">
    <animate attributeName="stroke-dashoffset" 
             values="701.0654745421817;0" 
             dur="1.5s" 
             begin="1.5s" 
             fill="freeze" />
  </path>
</svg>